<svg id="svg" version="1.1" xmlns="http://www.w3.org/2000/svg" xmlns:xlink="http://www.w3.org/1999/xlink" width="400" height="446.51162790697674" viewBox="0, 0, 400,446.51162790697674"><g id="svgg"><path id="path0" d="M0.000 223.200 L 0.000 446.400 200.000 446.400 L 400.000 446.400 400.000 223.200 L 400.000 0.000 200.000 0.000 L 0.000 0.000 0.000 223.200 M283.404 19.812 C 310.004 24.451,319.702 65.258,306.854 118.494 L 305.721 123.188 309.160 124.229 C 355.092 138.131,382.575 158.267,385.633 180.259 C 388.225 198.893,368.835 219.625,335.000 234.396 C 326.688 238.024,321.133 240.020,308.100 244.059 C 306.617 244.519,306.569 244.794,307.408 248.030 C 315.288 278.443,314.890 310.307,306.401 328.597 C 291.213 361.322,250.893 353.119,202.527 307.466 L 200.854 305.886 195.927 310.498 C 161.913 342.331,126.474 355.660,106.800 344.018 C 87.880 332.821,82.405 295.676,93.180 251.610 C 94.839 244.827,95.136 245.518,89.900 243.993 C 42.631 230.223,11.231 203.383,14.800 179.797 C 18.057 158.269,45.721 137.652,88.400 124.946 C 91.810 123.931,94.656 123.052,94.724 122.993 C 94.792 122.933,94.128 119.851,93.247 116.143 C 83.086 73.367,87.329 38.050,104.155 25.338 C 123.001 11.100,159.056 23.932,195.777 57.945 C 198.185 60.175,200.255 61.999,200.377 61.998 C 200.500 61.996,202.670 60.077,205.200 57.734 C 228.479 36.168,251.376 22.599,268.800 20.043 C 270.450 19.801,272.250 19.536,272.800 19.456 C 275.302 19.088,280.199 19.253,283.404 19.812 M269.107 29.171 C 255.028 32.228,238.621 41.215,222.000 54.973 C 218.997 57.459,215.631 60.466,208.719 66.840 L 206.723 68.679 211.406 73.840 C 220.009 83.321,228.968 94.436,237.550 106.275 C 242.015 112.435,241.617 112.150,246.400 112.606 C 259.750 113.879,276.834 116.555,289.948 119.429 C 297.600 121.106,296.800 121.528,298.331 115.000 C 307.363 76.473,303.727 41.762,289.629 31.913 C 284.749 28.504,276.966 27.464,269.107 29.171 M116.748 29.224 C 97.492 33.781,91.443 68.326,101.981 113.569 C 102.874 117.402,103.662 120.595,103.732 120.665 C 103.802 120.735,106.653 120.176,110.067 119.423 C 121.869 116.819,135.536 114.662,151.951 112.814 C 155.774 112.383,158.935 111.979,158.976 111.916 C 164.509 103.261,181.864 81.698,191.304 71.749 L 194.009 68.898 190.904 65.922 C 164.003 40.135,133.801 25.189,116.748 29.224 M196.325 79.700 C 187.734 89.035,170.349 110.482,170.914 111.048 C 170.988 111.121,174.727 111.010,179.224 110.800 C 189.716 110.310,210.684 110.310,221.176 110.800 C 225.673 111.010,229.433 111.100,229.532 111.001 C 230.334 110.199,201.884 75.600,200.424 75.600 C 200.245 75.600,198.401 77.445,196.325 79.700 M192.200 119.485 C 185.296 119.583,168.794 120.321,165.715 120.670 L 163.629 120.907 159.265 127.553 C 147.947 144.791,139.111 160.068,131.003 176.418 C 126.902 184.687,126.897 183.003,131.050 191.304 C 141.512 212.214,162.139 246.482,164.573 246.996 C 169.661 248.071,210.017 248.486,225.000 247.618 C 237.856 246.873,236.469 247.377,239.921 242.190 C 249.729 227.450,261.173 207.664,269.355 191.299 L 273.205 183.598 270.752 178.699 C 261.844 160.906,250.873 142.095,238.978 124.219 L 236.777 120.912 234.486 120.672 C 227.798 119.973,204.303 119.314,192.200 119.485 M142.600 123.013 C 128.471 124.818,106.882 128.920,106.519 129.867 C 105.940 131.375,120.874 171.657,122.349 172.569 C 122.499 172.661,123.308 171.405,124.146 169.777 C 131.862 154.789,139.690 141.137,148.045 128.100 C 151.808 122.228,151.914 122.002,150.877 122.046 C 150.285 122.072,146.560 122.507,142.600 123.013 M248.800 122.219 C 248.800 122.366,250.751 125.572,253.135 129.343 C 261.311 142.277,266.517 151.223,273.600 164.507 C 275.910 168.839,277.963 172.333,278.162 172.271 C 279.420 171.880,295.116 130.583,294.313 129.780 C 293.540 129.007,267.009 124.146,257.400 123.017 C 254.540 122.681,251.435 122.304,250.500 122.178 C 249.565 122.053,248.800 122.071,248.800 122.219 M94.200 132.647 C 55.075 144.206,29.834 160.668,24.446 178.142 C 18.979 195.870,43.358 218.435,82.849 232.200 C 87.200 233.716,96.091 236.400,96.765 236.400 C 96.981 236.400,97.997 233.745,99.022 230.500 C 102.885 218.270,108.268 204.200,114.240 190.717 C 117.764 182.760,117.713 184.764,114.573 177.754 C 108.928 165.153,103.196 150.232,99.339 138.101 C 97.216 131.422,97.462 131.683,94.200 132.647 M300.279 141.222 C 296.070 153.802,291.325 165.854,285.695 178.269 L 283.305 183.538 286.590 190.669 C 292.414 203.309,297.727 216.688,301.809 228.988 C 304.302 236.502,303.529 235.971,309.399 234.192 C 348.554 222.323,376.758 201.145,376.795 183.584 C 376.827 168.912,356.229 151.108,325.600 139.331 C 320.257 137.277,304.289 132.000,303.416 132.000 C 303.388 132.000,301.976 136.150,300.279 141.222 M208.600 150.779 C 233.941 157.245,242.462 188.924,223.831 207.404 C 202.668 228.395,166.435 213.233,166.403 183.373 C 166.380 161.547,187.343 145.354,208.600 150.779 M276.373 197.659 C 270.567 209.219,258.661 229.976,251.362 241.258 C 248.356 245.906,248.361 245.882,250.300 245.693 C 263.499 244.410,293.791 239.143,295.015 237.918 C 295.818 237.115,280.092 196.358,278.278 194.545 C 278.153 194.420,277.295 195.821,276.373 197.659 M122.033 195.538 C 119.302 200.641,106.000 236.325,106.000 238.548 C 106.000 239.742,150.851 246.883,151.881 245.853 C 152.004 245.729,150.311 242.877,148.120 239.514 C 140.230 227.409,129.734 209.129,123.495 196.624 C 122.549 194.730,122.490 194.685,122.033 195.538 M295.000 247.432 C 287.451 249.533,263.916 253.374,249.826 254.805 C 245.440 255.250,241.820 255.656,241.781 255.707 C 241.742 255.758,240.841 257.060,239.780 258.600 C 231.146 271.125,217.842 287.915,209.935 296.265 C 206.886 299.485,206.757 299.132,213.100 304.896 C 243.779 332.771,272.011 344.900,287.705 336.947 C 304.101 328.639,308.838 290.304,298.473 249.827 C 297.663 246.666,297.689 246.684,295.000 247.432 M103.418 248.058 C 102.872 249.626,101.108 257.350,100.051 262.800 C 91.905 304.817,98.944 334.664,117.926 338.594 C 135.525 342.238,171.948 323.781,193.554 300.272 L 194.508 299.234 191.914 296.517 C 184.428 288.675,173.264 275.125,164.083 262.738 L 158.848 255.676 155.324 255.402 C 146.591 254.722,133.094 253.084,123.600 251.551 C 119.951 250.961,104.851 247.994,104.170 247.733 C 103.860 247.614,103.522 247.761,103.418 248.058 M171.200 256.778 C 171.200 257.229,174.638 261.845,180.750 269.600 C 188.723 279.717,200.031 292.440,200.987 292.370 C 202.459 292.261,230.686 257.353,229.921 256.588 C 229.827 256.493,226.161 256.612,221.775 256.852 C 213.298 257.316,173.143 257.115,171.900 256.603 C 171.470 256.426,171.200 256.493,171.200 256.778 M297.000 377.800 L 297.000 380.600 294.500 380.719 L 292.000 380.838 292.000 378.086 C 292.000 374.753,292.015 374.736,294.784 374.883 L 297.000 375.000 297.000 377.800 M48.773 377.342 C 56.669 380.344,57.817 391.771,50.674 396.279 L 49.082 397.284 50.268 398.036 C 52.016 399.142,53.522 401.465,57.115 408.595 C 60.597 415.505,60.604 415.583,57.733 415.594 C 55.106 415.604,54.904 415.396,52.126 409.848 C 47.091 399.795,46.242 399.049,39.801 399.019 L 35.800 399.000 35.692 407.094 C 35.569 416.289,35.785 415.799,31.968 415.526 L 30.200 415.400 30.096 396.400 C 30.039 385.950,30.085 377.157,30.199 376.860 C 30.524 376.011,46.354 376.422,48.773 377.342 M207.306 379.700 C 208.280 381.515,212.119 388.734,215.838 395.743 L 222.600 408.486 222.705 392.443 L 222.809 376.400 225.408 376.400 L 228.008 376.400 227.904 395.900 L 227.800 415.400 224.906 415.517 C 221.206 415.668,220.793 415.416,218.990 411.909 C 218.167 410.309,215.337 404.950,212.700 400.000 C 210.064 395.050,207.094 389.470,206.100 387.600 C 205.106 385.730,204.182 384.020,204.047 383.800 C 203.911 383.580,203.710 390.600,203.600 399.400 L 203.400 415.400 201.000 415.400 L 198.600 415.400 198.496 396.400 C 198.439 385.950,198.478 377.175,198.583 376.900 C 198.716 376.555,199.820 376.400,202.155 376.400 L 205.535 376.400 207.306 379.700 M164.800 381.988 L 164.800 385.975 169.700 386.088 L 174.600 386.200 174.600 388.000 L 174.600 389.800 169.800 390.000 L 165.000 390.200 165.000 399.200 C 165.000 411.544,164.741 411.011,170.952 411.448 L 174.800 411.718 174.800 413.432 C 174.800 415.587,174.350 415.760,169.678 415.400 C 160.713 414.708,160.000 413.485,160.000 398.803 L 160.000 390.046 158.300 389.923 L 156.600 389.800 156.600 388.000 L 156.600 386.200 158.300 386.077 L 160.000 385.954 160.000 381.977 L 160.000 378.000 162.400 378.000 L 164.800 378.000 164.800 381.988 M276.000 381.988 L 276.000 385.975 280.900 386.088 L 285.800 386.200 285.800 388.000 L 285.800 389.800 280.900 389.912 L 276.000 390.025 276.000 398.762 C 276.000 411.376,275.820 411.002,282.108 411.444 L 286.000 411.718 286.000 413.432 C 286.000 415.614,285.606 415.750,280.364 415.378 C 271.896 414.778,271.468 414.078,271.200 400.400 L 271.000 390.200 269.279 390.076 L 267.558 389.952 267.679 388.076 L 267.800 386.200 269.500 386.077 L 271.200 385.954 271.200 381.977 L 271.200 378.000 273.600 378.000 L 276.000 378.000 276.000 381.988 M35.600 387.600 L 35.600 394.400 40.300 394.399 C 47.391 394.398,49.601 392.840,49.599 387.841 C 49.598 382.486,47.327 380.800,40.115 380.800 L 35.600 380.800 35.600 387.600 M82.142 386.413 C 86.628 388.091,89.466 392.705,89.685 398.676 L 89.800 401.800 78.900 401.906 L 68.000 402.013 68.002 403.106 C 68.017 410.565,76.496 414.167,85.748 410.646 C 87.259 410.071,88.564 409.600,88.648 409.600 C 88.731 409.600,88.800 410.570,88.800 411.757 C 88.800 414.233,88.211 414.646,83.306 415.611 C 71.478 417.938,63.314 412.482,62.872 401.955 C 62.370 389.961,71.640 382.483,82.142 386.413 M113.701 386.397 C 119.536 388.580,120.792 392.136,120.797 406.482 L 120.800 415.164 119.452 415.417 C 116.973 415.882,116.213 415.562,116.085 414.000 C 115.884 411.564,115.711 411.489,114.066 413.134 C 108.978 418.222,98.176 416.422,96.448 410.199 C 94.103 401.751,98.524 397.458,110.115 396.927 C 116.283 396.644,116.129 396.711,115.547 394.562 C 114.292 389.931,108.322 388.264,101.362 390.600 C 99.724 391.150,98.297 391.600,98.192 391.600 C 97.283 391.600,98.110 387.536,99.100 387.135 C 103.295 385.437,110.202 385.088,113.701 386.397 M149.800 386.493 C 151.390 387.073,151.401 387.091,151.521 389.390 C 151.632 391.490,151.577 391.673,150.921 391.390 C 140.754 386.987,133.800 390.798,133.800 400.772 C 133.800 410.866,140.661 414.649,150.921 410.210 C 151.577 409.927,151.632 410.111,151.521 412.210 C 151.361 415.273,150.319 415.730,143.400 415.771 C 132.792 415.835,127.222 408.967,128.782 397.747 C 130.112 388.188,139.976 382.906,149.800 386.493 M253.964 386.226 C 259.835 387.970,261.000 391.079,261.000 405.000 L 261.000 415.400 258.800 415.400 L 256.600 415.400 256.400 413.469 L 256.200 411.538 255.000 412.806 C 253.031 414.886,250.988 415.717,247.350 415.917 C 240.244 416.307,236.642 413.240,236.642 406.800 C 236.642 399.869,240.219 397.391,250.900 396.920 L 256.400 396.677 256.400 395.693 C 256.400 390.657,248.059 387.915,241.285 390.723 C 240.122 391.205,239.087 391.600,238.985 391.600 C 238.668 391.600,238.783 387.201,239.100 387.177 C 239.265 387.164,240.660 386.815,242.200 386.400 C 245.711 385.455,251.098 385.375,253.964 386.226 M356.098 386.396 C 358.662 387.355,361.226 389.839,362.399 392.498 C 363.299 394.540,364.234 401.126,363.699 401.661 C 363.520 401.840,358.519 402.035,352.587 402.093 L 341.800 402.200 341.927 403.200 C 342.924 411.042,350.447 414.186,359.748 410.646 C 361.259 410.071,362.564 409.600,362.648 409.600 C 362.731 409.600,362.800 410.570,362.800 411.757 C 362.800 414.224,362.321 414.560,357.332 415.587 C 344.902 418.147,336.996 412.400,337.003 400.807 C 337.011 389.253,345.868 382.569,356.098 386.396 M297.105 400.573 C 297.220 416.333,297.339 415.583,294.733 415.594 C 291.800 415.606,292.000 416.685,292.000 400.824 C 292.000 384.834,291.794 385.924,294.784 386.083 L 297.000 386.200 297.105 400.573 M308.690 386.500 C 308.903 386.775,311.031 392.269,313.418 398.708 C 315.995 405.658,317.878 410.203,318.052 409.892 C 318.214 409.604,319.451 406.406,320.803 402.784 C 322.155 399.163,324.105 393.950,325.136 391.200 L 327.012 386.200 329.506 386.081 C 330.878 386.015,332.000 386.073,332.000 386.209 C 332.000 386.725,321.470 414.624,321.095 415.100 C 320.660 415.653,315.729 415.797,314.916 415.280 C 314.355 414.924,303.626 386.750,303.879 386.300 C 304.165 385.791,308.273 385.962,308.690 386.500 M72.997 390.346 C 70.980 391.262,68.970 393.523,68.424 395.489 C 67.685 398.149,67.204 398.000,76.548 398.000 L 85.097 398.000 84.744 396.114 C 83.737 390.722,78.177 387.992,72.997 390.346 M346.997 390.346 C 344.980 391.262,342.970 393.523,342.424 395.489 C 341.686 398.148,341.213 398.000,350.452 398.000 L 358.904 398.000 358.700 396.193 C 358.115 391.003,352.131 388.014,346.997 390.346 M105.249 401.201 C 98.231 402.858,99.708 412.000,106.993 412.000 C 112.032 412.000,115.032 408.874,115.840 402.782 L 116.103 400.800 111.352 400.841 C 108.738 400.863,105.992 401.025,105.249 401.201 M245.414 401.387 C 238.337 403.286,240.587 412.290,248.044 411.914 C 252.799 411.674,255.816 408.462,256.300 403.125 L 256.511 400.800 251.956 400.827 C 249.450 400.842,246.506 401.094,245.414 401.387 " stroke="none" fill="#f7f7f7" fill-rule="evenodd"></path><path id="path1" d="M272.800 19.456 C 272.250 19.536,270.450 19.801,268.800 20.043 C 251.376 22.599,228.479 36.168,205.200 57.734 C 202.670 60.077,200.500 61.996,200.377 61.998 C 200.255 61.999,198.185 60.175,195.777 57.945 C 159.056 23.932,123.001 11.100,104.155 25.338 C 87.329 38.050,83.086 73.367,93.247 116.143 C 94.128 119.851,94.792 122.933,94.724 122.993 C 94.656 123.052,91.810 123.931,88.400 124.946 C 45.721 137.652,18.057 158.269,14.800 179.797 C 11.231 203.383,42.631 230.223,89.900 243.993 C 95.136 245.518,94.839 244.827,93.180 251.610 C 82.405 295.676,87.880 332.821,106.800 344.018 C 126.474 355.660,161.913 342.331,195.927 310.498 L 200.854 305.886 202.527 307.466 C 247.126 349.564,285.419 360.106,302.737 335.053 C 314.548 317.968,316.433 282.858,307.408 248.030 C 306.569 244.794,306.617 244.519,308.100 244.059 C 327.479 238.053,338.763 233.416,350.780 226.519 C 409.835 192.630,392.234 149.372,309.160 124.229 L 305.721 123.188 306.854 118.494 C 317.290 75.250,312.638 37.606,295.272 24.781 C 289.513 20.529,280.325 18.351,272.800 19.456 M285.241 29.543 C 302.936 36.414,308.396 72.063,298.331 115.000 C 296.800 121.528,297.600 121.106,289.948 119.429 C 276.834 116.555,259.750 113.879,246.400 112.606 C 241.617 112.150,242.015 112.435,237.550 106.275 C 228.968 94.436,220.009 83.321,211.406 73.840 L 206.723 68.679 208.719 66.840 C 223.670 53.055,231.202 47.140,242.398 40.395 C 259.130 30.313,276.134 26.007,285.241 29.543 M129.496 29.211 C 146.850 32.027,169.953 45.839,190.904 65.922 L 194.009 68.898 191.304 71.749 C 181.864 81.698,164.509 103.261,158.976 111.916 C 158.935 111.979,155.774 112.383,151.951 112.814 C 135.536 114.662,121.869 116.819,110.067 119.423 C 106.653 120.176,103.802 120.735,103.732 120.665 C 103.662 120.595,102.874 117.402,101.981 113.569 C 91.443 68.326,97.492 33.781,116.748 29.224 C 118.802 28.738,126.532 28.730,129.496 29.211 M204.838 80.100 C 213.509 89.642,230.113 110.420,229.532 111.001 C 229.433 111.100,225.673 111.010,221.176 110.800 C 210.684 110.310,189.716 110.310,179.224 110.800 C 174.727 111.010,170.988 111.121,170.914 111.048 C 170.133 110.267,198.993 75.600,200.424 75.600 C 200.602 75.600,202.589 77.625,204.838 80.100 M223.197 120.032 C 228.146 120.253,233.226 120.540,234.486 120.672 L 236.777 120.912 238.978 124.219 C 250.873 142.095,261.844 160.906,270.752 178.699 L 273.205 183.598 269.355 191.299 C 261.173 207.664,249.729 227.450,239.921 242.190 C 236.469 247.377,237.856 246.873,225.000 247.618 C 210.017 248.486,169.661 248.071,164.573 246.996 C 162.139 246.482,141.512 212.214,131.050 191.304 C 126.897 183.003,126.902 184.687,131.003 176.418 C 139.111 160.068,147.947 144.791,159.265 127.553 L 163.629 120.907 165.715 120.670 C 176.521 119.446,203.318 119.148,223.197 120.032 M148.045 128.100 C 139.690 141.137,131.862 154.789,124.146 169.777 C 123.308 171.405,122.499 172.661,122.349 172.569 C 120.874 171.657,105.940 131.375,106.519 129.867 C 106.978 128.670,142.511 122.405,150.877 122.046 C 151.914 122.002,151.808 122.228,148.045 128.100 M257.400 123.017 C 267.009 124.146,293.540 129.007,294.313 129.780 C 295.116 130.583,279.420 171.880,278.162 172.271 C 277.963 172.333,275.910 168.839,273.600 164.507 C 266.517 151.223,261.311 142.277,253.135 129.343 C 248.134 121.432,248.300 121.884,250.500 122.178 C 251.435 122.304,254.540 122.681,257.400 123.017 M99.339 138.101 C 103.196 150.232,108.928 165.153,114.573 177.754 C 117.713 184.764,117.764 182.760,114.240 190.717 C 108.268 204.200,102.885 218.270,99.022 230.500 C 97.997 233.745,96.981 236.400,96.765 236.400 C 96.091 236.400,87.200 233.716,82.849 232.200 C 43.358 218.435,18.979 195.870,24.446 178.142 C 29.834 160.668,55.075 144.206,94.200 132.647 C 97.462 131.683,97.216 131.422,99.339 138.101 M309.234 133.758 C 353.612 147.286,381.124 169.523,376.230 187.907 C 371.685 204.980,345.155 223.354,309.399 234.192 C 303.529 235.971,304.302 236.502,301.809 228.988 C 297.727 216.688,292.414 203.309,286.590 190.669 L 283.305 183.538 285.695 178.269 C 291.325 165.854,296.070 153.802,300.279 141.222 C 301.976 136.150,303.388 132.000,303.416 132.000 C 303.445 132.000,306.063 132.791,309.234 133.758 M194.537 150.164 C 167.312 155.367,156.979 187.830,176.375 207.225 C 198.274 229.125,235.610 212.357,233.877 181.400 C 232.774 161.686,213.660 146.510,194.537 150.164 M280.282 198.686 C 285.516 210.219,295.671 237.262,295.015 237.918 C 293.791 239.143,263.499 244.410,250.300 245.693 C 248.361 245.882,248.356 245.906,251.362 241.258 C 258.661 229.976,270.567 209.219,276.373 197.659 C 277.295 195.821,278.153 194.420,278.278 194.545 C 278.404 194.670,279.305 196.534,280.282 198.686 M128.099 205.400 C 134.496 217.421,141.514 229.379,148.120 239.514 C 150.311 242.877,152.004 245.729,151.881 245.853 C 150.851 246.883,106.000 239.742,106.000 238.548 C 106.000 236.851,115.201 211.542,119.755 200.713 C 122.558 194.047,122.332 194.294,123.495 196.624 C 124.037 197.711,126.109 201.660,128.099 205.400 M298.473 249.827 C 308.838 290.304,304.101 328.639,287.705 336.947 C 272.011 344.900,243.779 332.771,213.100 304.896 C 206.757 299.132,206.886 299.485,209.935 296.265 C 217.842 287.915,231.146 271.125,239.780 258.600 C 240.841 257.060,241.742 255.758,241.781 255.707 C 241.820 255.656,245.440 255.250,249.826 254.805 C 263.916 253.374,287.451 249.533,295.000 247.432 C 297.689 246.684,297.663 246.666,298.473 249.827 M112.866 249.540 C 127.305 252.364,141.550 254.330,155.324 255.402 L 158.848 255.676 164.083 262.738 C 173.264 275.125,184.428 288.675,191.914 296.517 L 194.508 299.234 193.554 300.272 C 171.948 323.781,135.525 342.238,117.926 338.594 C 97.373 334.339,90.864 298.653,102.241 252.600 C 103.509 247.467,103.505 247.478,104.170 247.733 C 104.480 247.852,108.393 248.665,112.866 249.540 M193.200 257.090 C 205.691 257.210,216.939 257.117,221.775 256.852 C 226.161 256.612,229.827 256.493,229.921 256.588 C 230.686 257.353,202.459 292.261,200.987 292.370 C 200.031 292.440,188.723 279.717,180.750 269.600 C 171.722 258.145,170.193 255.899,171.900 256.603 C 172.285 256.762,181.870 256.981,193.200 257.090 M292.284 375.049 C 292.128 375.205,292.000 376.572,292.000 378.086 L 292.000 380.838 294.500 380.719 L 297.000 380.600 297.000 377.800 L 297.000 375.000 294.784 374.883 C 293.565 374.818,292.440 374.893,292.284 375.049 M30.199 376.860 C 30.085 377.157,30.039 385.950,30.096 396.400 L 30.200 415.400 31.968 415.526 C 35.785 415.799,35.569 416.289,35.692 407.094 L 35.800 399.000 39.801 399.019 C 46.242 399.049,47.091 399.795,52.126 409.848 C 54.904 415.396,55.106 415.604,57.733 415.594 C 60.604 415.583,60.597 415.505,57.115 408.595 C 53.522 401.465,52.016 399.142,50.268 398.036 L 49.082 397.284 50.674 396.279 C 57.817 391.771,56.669 380.344,48.773 377.342 C 46.354 376.422,30.524 376.011,30.199 376.860 M198.583 376.900 C 198.478 377.175,198.439 385.950,198.496 396.400 L 198.600 415.400 201.000 415.400 L 203.400 415.400 203.600 399.400 C 203.710 390.600,203.911 383.580,204.047 383.800 C 204.182 384.020,205.106 385.730,206.100 387.600 C 207.094 389.470,210.064 395.050,212.700 400.000 C 215.337 404.950,218.167 410.309,218.990 411.909 C 220.793 415.416,221.206 415.668,224.906 415.517 L 227.800 415.400 227.904 395.900 L 228.008 376.400 225.408 376.400 L 222.809 376.400 222.705 392.443 L 222.600 408.486 215.838 395.743 C 212.119 388.734,208.280 381.515,207.306 379.700 L 205.535 376.400 202.155 376.400 C 199.820 376.400,198.716 376.555,198.583 376.900 M160.000 381.977 L 160.000 385.954 158.300 386.077 L 156.600 386.200 156.600 388.000 L 156.600 389.800 158.300 389.923 L 160.000 390.046 160.000 398.803 C 160.000 413.485,160.713 414.708,169.678 415.400 C 174.350 415.760,174.800 415.587,174.800 413.432 L 174.800 411.718 170.952 411.448 C 164.741 411.011,165.000 411.544,165.000 399.200 L 165.000 390.200 169.800 390.000 L 174.600 389.800 174.600 388.000 L 174.600 386.200 169.700 386.088 L 164.800 385.975 164.800 381.988 L 164.800 378.000 162.400 378.000 L 160.000 378.000 160.000 381.977 M271.200 381.977 L 271.200 385.954 269.500 386.077 L 267.800 386.200 267.679 388.076 L 267.558 389.952 269.279 390.076 L 271.000 390.200 271.200 400.400 C 271.468 414.078,271.896 414.778,280.364 415.378 C 285.606 415.750,286.000 415.614,286.000 413.432 L 286.000 411.718 282.108 411.444 C 275.820 411.002,276.000 411.376,276.000 398.762 L 276.000 390.025 280.900 389.912 L 285.800 389.800 285.800 388.000 L 285.800 386.200 280.900 386.088 L 276.000 385.975 276.000 381.988 L 276.000 378.000 273.600 378.000 L 271.200 378.000 271.200 381.977 M46.415 381.700 C 48.708 382.856,49.599 384.573,49.599 387.841 C 49.601 392.840,47.391 394.398,40.300 394.399 L 35.600 394.400 35.600 387.600 L 35.600 380.800 40.115 380.800 C 44.002 380.800,44.879 380.925,46.415 381.700 M71.761 386.331 C 60.185 390.332,59.495 409.535,70.741 414.724 C 74.592 416.501,82.578 416.403,87.283 414.520 C 88.776 413.923,88.800 413.880,88.800 411.757 C 88.800 410.570,88.731 409.600,88.648 409.600 C 88.564 409.600,87.259 410.071,85.748 410.646 C 76.496 414.167,68.017 410.565,68.002 403.106 L 68.000 402.013 78.900 401.906 L 89.800 401.800 89.685 398.676 C 89.320 388.708,81.154 383.084,71.761 386.331 M102.200 386.179 C 98.165 387.210,98.000 387.344,98.000 389.590 C 98.000 390.696,98.086 391.600,98.192 391.600 C 98.297 391.600,99.724 391.150,101.362 390.600 C 108.322 388.264,114.292 389.931,115.547 394.562 C 116.129 396.711,116.283 396.644,110.115 396.927 C 98.524 397.458,94.103 401.751,96.448 410.199 C 98.176 416.422,108.978 418.222,114.066 413.134 C 115.711 411.489,115.884 411.564,116.085 414.000 C 116.213 415.562,116.973 415.882,119.452 415.417 L 120.800 415.164 120.797 406.482 C 120.793 394.308,120.309 391.867,117.272 388.697 C 114.510 385.814,107.930 384.715,102.200 386.179 M138.200 386.135 C 131.137 388.477,127.567 395.091,128.752 403.639 C 129.894 411.879,134.656 415.824,143.400 415.771 C 150.319 415.730,151.361 415.273,151.521 412.210 C 151.632 410.111,151.577 409.927,150.921 410.210 C 140.661 414.649,133.800 410.866,133.800 400.772 C 133.800 390.798,140.754 386.987,150.921 391.390 C 151.577 391.673,151.632 391.490,151.521 389.390 C 151.401 387.091,151.390 387.073,149.800 386.493 C 147.582 385.683,140.245 385.457,138.200 386.135 M242.200 386.400 C 240.660 386.815,239.265 387.164,239.100 387.177 C 238.783 387.201,238.668 391.600,238.985 391.600 C 239.087 391.600,240.122 391.205,241.285 390.723 C 248.059 387.915,256.400 390.657,256.400 395.693 L 256.400 396.677 250.900 396.920 C 240.219 397.391,236.642 399.869,236.642 406.800 C 236.642 413.240,240.244 416.307,247.350 415.917 C 250.988 415.717,253.031 414.886,255.000 412.806 L 256.200 411.538 256.400 413.469 L 256.600 415.400 258.800 415.400 L 261.000 415.400 261.000 405.000 C 261.000 392.897,260.728 391.507,257.784 388.563 C 254.810 385.589,248.476 384.710,242.200 386.400 M346.069 386.194 C 340.001 388.087,337.008 392.912,337.003 400.807 C 336.996 412.400,344.902 418.147,357.332 415.587 C 362.321 414.560,362.800 414.224,362.800 411.757 C 362.800 410.570,362.731 409.600,362.648 409.600 C 362.564 409.600,361.259 410.071,359.748 410.646 C 350.447 414.186,342.924 411.042,341.927 403.200 L 341.800 402.200 352.587 402.093 C 358.519 402.035,363.520 401.840,363.699 401.661 C 364.234 401.126,363.299 394.540,362.399 392.498 C 359.902 386.837,352.798 384.094,346.069 386.194 M292.284 386.249 C 292.128 386.405,292.000 392.964,292.000 400.824 C 292.000 416.685,291.800 415.606,294.733 415.594 C 297.339 415.583,297.220 416.333,297.105 400.573 L 297.000 386.200 294.784 386.083 C 293.565 386.018,292.440 386.093,292.284 386.249 M303.879 386.300 C 303.626 386.750,314.355 414.924,314.916 415.280 C 315.729 415.797,320.660 415.653,321.095 415.100 C 321.470 414.624,332.000 386.725,332.000 386.209 C 332.000 386.073,330.878 386.015,329.506 386.081 L 327.012 386.200 325.136 391.200 C 324.105 393.950,322.155 399.163,320.803 402.784 C 319.451 406.406,318.214 409.604,318.052 409.892 C 317.878 410.203,315.995 405.658,313.418 398.708 C 311.031 392.269,308.903 386.775,308.690 386.500 C 308.273 385.962,304.165 385.791,303.879 386.300 M80.815 390.408 C 82.756 391.398,84.276 393.605,84.744 396.114 L 85.097 398.000 76.548 398.000 C 67.204 398.000,67.685 398.149,68.424 395.489 C 69.743 390.738,76.241 388.074,80.815 390.408 M354.700 390.448 C 356.852 391.490,358.425 393.749,358.700 396.193 L 358.904 398.000 350.452 398.000 C 341.213 398.000,341.686 398.148,342.424 395.489 C 343.751 390.711,349.969 388.158,354.700 390.448 M115.840 402.782 C 115.032 408.874,112.032 412.000,106.993 412.000 C 103.154 412.000,100.798 409.944,100.807 406.600 C 100.819 402.231,103.237 400.911,111.352 400.841 L 116.103 400.800 115.840 402.782 M256.300 403.125 C 255.529 411.630,244.797 415.773,241.846 408.704 C 239.650 403.442,242.938 400.880,251.956 400.827 L 256.511 400.800 256.300 403.125 " stroke="none" fill="#07dcfc" fill-rule="evenodd"></path></g></svg>